HIERARCHY
ROOT Hips
{
  OFFSET -26.1907 99.0914 18.1371
  CHANNELS 6 Xposition Yposition Zposition Zrotation Xrotation Yrotation
  JOINT RightUpLeg
  {
    OFFSET -8.9458 -8.66707 0.101652
    CHANNELS 6 Xposition Yposition Zposition Zrotation Xrotation Yrotation
    JOINT RightLeg
    {
      OFFSET 0 -44.4227 1.3727
      CHANNELS 6 Xposition Yposition Zposition Zrotation Xrotation Yrotation
      JOINT RightFoot
      {
        OFFSET 0.253549 -42.0924 -1.46059
        CHANNELS 6 Xposition Yposition Zposition Zrotation Xrotation Yrotation
        JOINT RightToes
        {
          OFFSET 0.04 -4.41509 8.4991
          CHANNELS 6 Xposition Yposition Zposition Zrotation Xrotation Yrotation
          End Site
          {
            OFFSET -0.08 -0.137448 9.77979
          }
        }
      }
    }
  }
  JOINT Spine
  {
    OFFSET 0 11.8905 0
    CHANNELS 6 Xposition Yposition Zposition Zrotation Xrotation Yrotation
    JOINT Spine1
    {
      OFFSET 0 25.6574 0.127663
      CHANNELS 6 Xposition Yposition Zposition Zrotation Xrotation Yrotation
      JOINT HEad
      {
        OFFSET 0 8.73416 0.011341
        CHANNELS 6 Xposition Yposition Zposition Zrotation Xrotation Yrotation
        End Site
        {
          OFFSET -0.29 12.7742 2.51395
        }
      }
      JOINT LeftShoulder1
      {
        OFFSET 8.99 -0.362252 -0.22
        CHANNELS 6 Xposition Yposition Zposition Zrotation Xrotation Yrotation
        JOINT LeftArm
        {
          OFFSET 10.2827 -0.00337999 0.322123
          CHANNELS 6 Xposition Yposition Zposition Zrotation Xrotation Yrotation
          JOINT LeftForeArm
          {
            OFFSET 26.2597 0.099144 -1.42434
            CHANNELS 6 Xposition Yposition Zposition Zrotation Xrotation Yrotation
            JOINT LeftHand
            {
              OFFSET 22.0902 0.085362 1.02216
              CHANNELS 6 Xposition Yposition Zposition Zrotation Xrotation Yrotation
              End Site
              {
                OFFSET 13.419 -0.6 1.50291
              }
            }
          }
        }
      }
      JOINT RightShoulder
      {
        OFFSET -8.99 -0.362252 -0.22
        CHANNELS 6 Xposition Yposition Zposition Zrotation Xrotation Yrotation
        JOINT RightArm
        {
          OFFSET -10.2827 -0.00338 0.322123
          CHANNELS 6 Xposition Yposition Zposition Zrotation Xrotation Yrotation
          JOINT RightForeArm
          {
            OFFSET -26.364 0.099144 -1.42434
            CHANNELS 6 Xposition Yposition Zposition Zrotation Xrotation Yrotation
            JOINT RightHand
            {
              OFFSET -22.0324 0.085362 1.02216
              CHANNELS 6 Xposition Yposition Zposition Zrotation Xrotation Yrotation
              End Site
              {
                OFFSET -13.3284 -0.6 1.50291
              }
            }
          }
        }
      }
    }
  }
  JOINT LeftUpLeg
  {
    OFFSET 8.9458 -8.66707 0.101652
    CHANNELS 6 Xposition Yposition Zposition Zrotation Xrotation Yrotation
    JOINT LeftLeg
    {
      OFFSET 0 -44.4227 1.3727
      CHANNELS 6 Xposition Yposition Zposition Zrotation Xrotation Yrotation
      JOINT LeftFoot
      {
        OFFSET -0.253549 -42.0924 -1.46059
        CHANNELS 6 Xposition Yposition Zposition Zrotation Xrotation Yrotation
        JOINT LeftToes
        {
          OFFSET -0.04 -4.41509 8.4991
          CHANNELS 6 Xposition Yposition Zposition Zrotation Xrotation Yrotation
          End Site
          {
            OFFSET 0.08 -0.047448 9.77979
          }
        }
      }
    }
  }
}
MOTION
Frames:	10
Frame Time:	0.0333333
-26.1907 99.0914 18.1371 0 0 -0 -8.9458 -8.66707 0.101652 0.837494 -1.93448 -0.00609699 -7.10543e-015 -44.4227 1.3727 -0.00166724 3.85664 -0.025294 0.253549 -42.0924 -1.46059 -0.835656 -1.9224 0.00339803 0.04 -4.41509 8.4991 2.31375e-023 1.89576e-022 -7.40531e-025 0 11.8905 0 0 0 -0 0 25.6574 0.127663 0 0 -0 0 8.73416 0.011341 0 0 -0 8.99 -0.362252 -0.22 0 0 -0 10.2827 -0.00337999 0.322123 0.000931199 0.00082065 0.00229282 26.2597 0.099144 -1.42434 -0.000944678 -0.000824028 -0.00245227 22.0902 0.085362 1.02216 1.34469e-005 3.41511e-006 0.000159442 -8.99 -0.362252 -0.22 0 0 -0 -10.2827 -0.00338 0.322123 -0.00103128 0.000828439 -0.00243066 -26.364 0.099144 -1.42434 0.00105362 -0.00082758 0.00258649 -22.0324 0.085362 1.02216 -2.23048e-005 -8.13721e-007 -0.000155813 8.9458 -8.66707 0.101652 -0.835076 0.210233 -0.000191915 0 -44.4227 1.3727 0.00101172 -0.551557 0.0287112 -0.253549 -42.0924 -1.46059 0.834251 0.340872 -0.0334817 -0.04 -4.41509 8.4991 4.64721e-024 -7.40531e-025 -7.40531e-025 
-28.4965 98.5289 15.8061 3.38031 -3.17375 -79.2133 -8.9458 -8.66707 0.101652 -3.60735 -8.06933 18.6161 0 -44.4227 1.3727 -0.177924 32.1287 0.442717 0.253549 -42.0924 -1.46059 -11.4007 -26.134 -24.3951 0.04 -4.41509 8.4991 -4.77083e-015 1.98785e-015 1.59028e-015 3.55271e-015 11.8905 0 -8.75736 0.149933 6.09368 -1.77636e-015 25.6574 0.127663 0.403717 -1.16158 1.70706 -3.55271e-015 8.73416 0.011341 4.69129 -16.4661 0.464576 8.99 -0.362252 -0.22 -7.95139e-016 0 3.18055e-015 10.2827 -0.00337999 0.322123 -75.5312 6.27972 1.07885 26.2597 0.099144 -1.42434 10.6932 -4.5719 -19.102 22.0902 0.085362 1.02216 0.0403543 5.81078 -0.819203 -8.99 -0.362252 -0.22 -7.95139e-016 0 3.18055e-015 -10.2827 -0.00338 0.322123 75.3233 32.2094 -2.17173 -26.364 0.099144 -1.42434 -14.6301 -7.47219 26.8212 -22.0324 0.085362 1.02216 -0.185174 12.2134 1.74281 8.9458 -8.66707 0.101652 -4.03899 -8.31377 -8.00908 0 -44.4227 1.3727 0.127799 24.5608 -0.407079 -0.253549 -42.0924 -1.46059 4.62958 -16.0768 13.6805 -0.04 -4.41509 8.4991 -7.95139e-016 -3.97569e-015 -9.54166e-015 
-28.5091 98.5371 15.9536 3.04447 -3.02597 -79.4115 -8.9458 -8.66707 0.101652 -3.47409 -7.72416 18.678 0 -44.4227 1.3727 -0.182377 32.0617 0.441871 0.253549 -42.0924 -1.46059 -11.3457 -26.1011 -24.308 0.04 -4.41509 8.4991 0 1.19271e-015 -0 0 11.8905 -3.55271e-015 -8.41122 0.539754 6.02767 -7.10543e-015 25.6574 0.127663 0.222412 -1.27216 1.68012 -3.55271e-015 8.73416 0.011341 4.54962 -16.8824 0.351317 8.99 -0.362252 -0.22 -7.95139e-016 -3.97569e-016 -0 10.2827 -0.00337999 0.322123 -75.0232 5.70266 1.23049 26.2597 0.099144 -1.42434 10.7113 -4.58353 -19.1362 22.0902 0.085362 1.02216 0.0401933 5.79792 -0.817355 -8.99 -0.362252 -0.22 -7.95139e-016 -3.97569e-016 -0 -10.2827 -0.00338 0.322123 74.7886 31.729 -1.88831 -26.364 0.099144 -1.42434 -14.7768 -7.59651 27.1211 -22.0324 0.085362 1.02216 -0.209742 12.977 1.85555 8.9458 -8.66707 0.101652 -3.93729 -7.9301 -8.10549 0 -44.4227 1.3727 0.126179 24.619 -0.408944 -0.253549 -42.0924 -1.46059 4.74439 -16.1878 13.9806 -0.04 -4.41509 8.4991 7.95139e-016 -2.78299e-015 -0 
-28.4992 98.5114 15.9444 3.33442 -2.52976 -79.229 -8.9458 -8.66707 0.101652 -2.91457 -8.08817 18.9138 0 -44.4227 1.3727 -0.181218 31.9742 0.441025 0.253549 -42.0924 -1.46059 -11.5208 -26.0155 -24.7373 0.04 -4.41509 8.4991 -1.59028e-015 -4.77083e-015 -3.18055e-015 0 11.8905 0 -8.12689 0.302184 5.75457 3.55271e-015 25.6574 0.127663 0.288569 -1.35727 1.61096 0 8.73416 0.011341 4.49082 -17.3857 -0.0163456 8.99 -0.362252 -0.22 1.59028e-015 -2.18663e-015 -3.18055e-015 10.2827 -0.00337999 0.322123 -74.2954 5.97586 1.15839 26.2597 0.099144 -1.42434 10.849 -4.67203 -19.3973 22.0902 0.085362 1.02216 0.0229668 4.43652 -0.624491 -8.99 -0.362252 -0.22 1.59028e-015 -2.18663e-015 -3.18055e-015 -10.2827 -0.00338 0.322123 74.0888 31.6438 -1.61982 -26.364 0.099144 -1.42434 -14.9231 -7.72177 27.4209 -22.0324 0.085362 1.02216 -0.186342 12.2511 1.74837 8.9458 -8.66707 0.101652 -3.46682 -8.51942 -8.21352 0 -44.4227 1.3727 0.128066 24.7627 -0.411897 -0.253549 -42.0924 -1.46059 4.71065 -16.1038 13.9348 -0.04 -4.41509 8.4991 7.95139e-016 -3.37934e-015 1.59028e-015 
-28.6158 98.5174 16.1446 3.18775 -3.24114 -79.5156 -8.9458 -8.66707 0.101652 -3.83361 -7.78069 18.8844 -3.55271e-015 -44.4227 1.3727 -0.181299 32.0543 0.440935 0.253549 -42.0924 -1.46059 -11.4087 -26.1304 -24.4151 0.04 -4.41509 8.4991 -3.18055e-015 2.38542e-015 4.77083e-015 0 11.8905 0 -8.98308 0.465862 5.96971 -3.55271e-015 25.6574 0.127663 0.306698 -1.15192 1.66084 3.55271e-015 8.73416 0.011341 4.60816 -17.7751 -0.49714 8.99 -0.362252 -0.22 -2.20695e-032 1.98785e-016 6.36111e-015 10.2827 -0.00337999 0.322123 -73.2314 7.1442 0.914049 26.2597 0.099144 -1.42434 11.1552 -4.87208 -19.98 22.0902 0.085362 1.02216 0.00377398 2.02255 -0.28405 -8.99 -0.362252 -0.22 -2.20695e-032 1.98785e-016 6.36111e-015 -10.2827 -0.00338 0.322123 73.5103 31.1309 -1.26741 -26.364 0.099144 -1.42434 -15.2548 -8.01055 28.105 -22.0324 0.085362 1.02216 -0.180645 12.0661 1.72117 8.9458 -8.66707 0.101652 -4.3659 -7.96161 -8.30933 -3.55271e-015 -44.4227 1.3727 0.126805 24.6065 -0.414 -0.253549 -42.0924 -1.46059 4.85361 -16.2706 14.2866 -0.04 -4.41509 8.4991 -7.95139e-016 2.5842e-015 -1.59028e-015 
-28.6 98.49 16.2951 3.49832 -2.89179 -79.632 -8.9458 -8.66707 0.101652 -3.68388 -8.14481 18.7879 -3.55271e-015 -44.4227 1.3727 -0.178793 31.8736 0.439585 0.253549 -42.0924 -1.46059 -11.2996 -26.069 -24.243 0.04 -4.41509 8.4991 -3.75182e-031 6.75868e-015 3.18055e-015 0 11.8905 -3.55271e-015 -8.64262 0.0511976 6.06239 0 25.6574 0.127663 0.126819 -1.09492 1.69601 -3.55271e-015 8.73416 0.011341 4.54589 -18.2483 -0.984117 8.99 -0.362252 -0.22 7.95139e-016 -1.98785e-016 -3.18055e-015 10.2827 -0.00337999 0.322123 -72.2197 6.39437 1.00252 26.2597 0.099144 -1.42434 11.6891 -5.23143 -21.0032 22.0902 0.085362 1.02216 0.0144744 3.58516 -0.504193 -8.99 -0.362252 -0.22 7.95139e-016 -1.98785e-016 -3.18055e-015 -10.2827 -0.00338 0.322123 72.6537 29.7635 -1.0031 -26.364 0.099144 -1.42434 -15.424 -8.16061 28.4564 -22.0324 0.085362 1.02216 -0.199035 12.6487 1.80705 8.9458 -8.66707 0.101652 -4.07781 -8.54965 -7.83073 0 -44.4227 1.3727 0.129162 24.9596 -0.417775 -0.253549 -42.0924 -1.46059 4.7819 -16.3981 13.9464 -0.04 -4.41509 8.4991 -1.65521e-032 -5.96354e-016 -1.59028e-015 
-28.6932 98.4889 16.5203 3.32923 -2.97468 -79.9992 -8.9458 -8.66707 0.101652 -3.96488 -7.93409 18.7358 0 -44.4227 1.3727 -0.176863 31.7746 0.438665 0.253549 -42.0924 -1.46059 -11.0866 -25.9776 -23.8755 0.04 -4.41509 8.4991 -1.10348e-032 -3.97569e-016 -1.59028e-015 0 11.8905 3.55271e-015 -8.66954 0.112107 6.0372 -3.55271e-015 25.6574 0.127663 0.169036 -0.95159 1.68765 -3.55271e-015 8.73416 0.011341 4.55823 -18.6406 -1.01063 8.99 -0.362252 -0.22 7.95139e-016 1.98785e-016 3.18055e-015 10.2827 -0.00337999 0.322123 -71.0795 6.32057 0.979126 26.2597 0.099144 -1.42434 12.2361 -5.614 -22.0614 22.0902 0.085362 1.02216 0.00283006 2.35993 -0.331494 -8.99 -0.362252 -0.22 7.95139e-016 1.98785e-016 3.18055e-015 -10.2827 -0.00338 0.322123 71.3544 29.8643 -0.569804 -26.364 0.099144 -1.42434 -16.1053 -8.78304 29.8858 -22.0324 0.085362 1.02216 -0.191564 12.4122 1.77225 8.9458 -8.66707 0.101652 -4.2734 -8.28334 -7.6669 0 -44.4227 1.3727 0.129383 25.0882 -0.420605 -0.253549 -42.0924 -1.46059 4.90121 -16.7861 14.0439 -0.04 -4.41509 8.4991 1.59028e-015 -5.1684e-015 4.77083e-015 
-28.721 98.4615 16.6161 3.39487 -2.73783 -80.2121 -8.9458 -8.66707 0.101652 -3.76593 -8.05157 18.9266 1.77636e-015 -44.4227 1.3727 -0.175868 31.7916 0.438373 0.253549 -42.0924 -1.46059 -11.0974 -25.947 -23.9045 0.04 -4.41509 8.4991 3.18055e-015 -3.57812e-015 -1.59028e-015 3.55271e-015 11.8905 -3.55271e-015 -8.5203 -0.00569215 6.16405 3.55271e-015 25.6574 0.127663 0.170109 -0.968462 1.72755 0 8.73416 0.011341 4.24578 -18.8263 -1.46867 8.99 -0.362252 -0.22 1.21382e-031 -2.18663e-015 3.18055e-015 10.2827 -0.00337999 0.322123 -69.6382 6.79115 0.842666 26.2597 0.099144 -1.42434 12.9965 -6.17077 -23.5492 22.0902 0.085362 1.02216 0.000434835 1.1975 -0.167887 -8.99 -0.362252 -0.22 1.21382e-031 -2.18663e-015 3.18055e-015 -10.2827 -0.00338 0.322123 70.046 28.7919 -0.0875687 -26.364 0.099144 -1.42434 -16.6731 -9.32538 31.0973 -22.0324 0.085362 1.02216 -0.195547 12.5354 1.79049 8.9458 -8.66707 0.101652 -4.07155 -8.40412 -7.43895 0 -44.4227 1.3727 0.128563 25.172 -0.421944 -0.253549 -42.0924 -1.46059 4.92849 -16.8595 14.0854 -0.04 -4.41509 8.4991 1.59028e-015 3.18055e-015 3.18055e-015 
-28.7448 98.4481 16.8868 3.27528 -2.53114 -80.3822 -8.9458 -8.66707 0.101652 -3.92775 -7.95892 18.1729 1.77636e-015 -44.4227 1.3727 -0.173038 31.6106 0.437264 0.253549 -42.0924 -1.46059 -10.539 -25.8192 -22.8509 0.04 -4.41509 8.4991 1.59028e-015 -3.97569e-015 -1.59028e-015 0 11.8905 3.55271e-015 -8.17352 0.137874 5.90123 -3.55271e-015 25.6574 0.127663 -0.0427457 -0.9641 1.64903 3.55271e-015 8.73416 0.011341 4.65111 -19.2979 -1.44473 8.99 -0.362252 -0.22 6.62086e-032 5.96354e-016 -6.36111e-015 10.2827 -0.00337999 0.322123 -67.9479 7.0904 0.74136 26.2597 0.099144 -1.42434 13.9401 -6.90452 -25.427 22.0902 0.085362 1.02216 -0.00053414 -0.788863 0.111273 -8.99 -0.362252 -0.22 6.62086e-032 5.96354e-016 -6.36111e-015 -10.2827 -0.00338 0.322123 68.2376 29.0738 0.582509 -26.364 0.099144 -1.42434 -17.5702 -10.229 33.0531 -22.0324 0.085362 1.02216 -0.165841 11.5628 1.64767 8.9458 -8.66707 0.101652 -4.14279 -8.32724 -7.8967 3.55271e-015 -44.4227 1.3727 0.131883 25.4799 -0.429328 -0.253549 -42.0924 -1.46059 5.19507 -17.211 14.6777 -0.04 -4.41509 8.4991 0 5.96354e-016 -0 
-28.779 98.4341 17.0625 3.14834 -2.38176 -80.6147 -8.9458 -8.66707 0.101652 -3.80454 -7.83472 18.3943 1.77636e-015 -44.4227 1.3727 -0.171215 31.5414 0.436845 0.253549 -42.0924 -1.46059 -10.527 -25.7778 -22.8605 0.04 -4.41509 8.4991 -3.18055e-015 -3.18055e-015 -3.18055e-015 -3.55271e-015 11.8905 3.55271e-015 -8.00866 0.300946 5.66803 -1.77636e-015 25.6574 0.127663 0.0996651 -1.07719 1.58288 0 8.73416 0.011341 4.65251 -19.7137 -1.518 8.99 -0.362252 -0.22 2.20695e-032 3.97569e-016 -3.18055e-015 10.2827 -0.00337999 0.322123 -66.5862 6.86892 0.738267 26.2597 0.099144 -1.42434 15.013 -7.79974 -27.6088 22.0902 0.085362 1.02216 0.00534552 -2.31603 0.326067 -8.99 -0.362252 -0.22 2.20695e-032 3.97569e-016 -3.18055e-015 -10.2827 -0.00338 0.322123 66.3624 28.3741 1.23925 -26.364 0.099144 -1.42434 -18.5139 -11.2469 35.1736 -22.0324 0.085362 1.02216 -0.151403 11.0524 1.57325 8.9458 -8.66707 0.101652 -4.00928 -8.30881 -7.62204 0 -44.4227 1.3727 0.134889 25.7543 -0.435908 -0.253549 -42.0924 -1.46059 5.22142 -17.5879 14.477 -0.04 -4.41509 8.4991 1.21382e-031 -2.18663e-015 3.18055e-015 
